# xmcd
#
# Track frame offsets:
#	150
#	13805
#	27282
#	39392
#	53395
#	67575
#	79720
#	93072
#	106695
#	118957
#	130837
#
# Disc length: 1897 seconds
#
# Revision: 0
# Processed by: cddbd v1.5.2PL0 Copyright (c) Steve Scherf et al.
# Submitted via: dBpowerAMP V4.0
#
DISCID=7707670b
DTITLE=John Lee Hooker - Blues Story
DYEAR=1900
DGENRE=Blues
TTITLE0=Drifting Room Door To Door
TTITLE1=She Left Me Bended Knee
TTITLE2=Let Your Daddy Ride
TTITLE3=Turn Over a New Leaf
TTITLE4=Don't You Remenber
TTITLE5=Hug and Squeeze You
TTITLE6=I Love You Baby
TTITLE7=The Syndicate
TTITLE8=Boogie Woogie All Night Long
TTITLE9=Rockin' Mama
TTITLE10=Boogie Chillen
EXTD=
EXTT0=
EXTT1=
EXTT2=
EXTT3=
EXTT4=
EXTT5=
EXTT6=
EXTT7=
EXTT8=
EXTT9=
EXTT10=
PLAYORDER=
